<?xml version="1.0" standalone="no"?>
<!DOCTYPE svg PUBLIC "-//W3C//DTD SVG 20010904//EN"
 "http://www.w3.org/TR/2001/REC-SVG-20010904/DTD/svg10.dtd">
<svg version="1.0" xmlns="http://www.w3.org/2000/svg"
 width="260.000000pt" height="260.000000pt" viewBox="0 0 260.000000 260.000000"
 preserveAspectRatio="xMidYMid meet">
<metadata>
Created by potrace 1.11, written by Peter Selinger 2001-2013
</metadata>
<g transform="translate(0.000000,260.000000) scale(0.100000,-0.100000)"
fill="#000000" stroke="none">
<path d="M1311 2082 c-32 -34 -80 -94 -107 -134 -27 -39 -59 -77 -71 -85 -20
-13 -23 -11 -54 31 -18 26 -38 46 -45 46 -16 0 -61 -61 -85 -116 -29 -66 -75
-114 -108 -114 -29 0 -50 -18 -71 -60 -12 -24 -11 -24 19 4 17 16 34 27 37 23
7 -7 60 18 88 42 18 15 19 15 14 -9 -3 -14 -9 -34 -12 -45 -15 -40 56 50 82
104 l25 55 17 -52 c9 -28 29 -69 44 -91 27 -38 27 -40 11 -71 -14 -27 -20 -30
-44 -25 -22 5 -36 0 -59 -20 -32 -26 -78 -93 -70 -100 2 -3 21 4 41 15 20 11
38 20 40 20 2 0 -9 -26 -24 -57 -16 -32 -31 -83 -34 -113 -3 -30 -2 -48 1 -40
4 8 13 19 20 23 8 4 14 17 14 27 0 11 4 20 8 20 5 0 14 10 20 23 10 21 11 21
11 -9 1 -39 20 -96 31 -89 4 2 10 24 14 47 9 56 26 108 35 108 7 0 44 -114 70
-212 10 -42 12 -41 -74 -39 -36 1 -38 0 -22 -12 15 -12 17 -33 17 -160 0 -129
-2 -147 -17 -156 -14 -8 -4 -10 42 -10 46 0 56 2 43 10 -14 8 -18 24 -18 73 0
61 1 64 27 70 30 8 43 -5 43 -47 0 -22 4 -28 17 -25 15 3 18 18 20 106 2 89
-1 106 -16 121 -11 11 -31 61 -46 112 -15 52 -36 116 -47 143 -10 27 -17 53
-16 58 2 5 24 -9 50 -31 25 -23 50 -41 54 -41 4 0 16 -7 26 -17 27 -24 23 2
-7 56 -31 54 -31 60 -1 32 18 -17 25 -19 29 -9 3 8 9 2 16 -14 11 -30 29 -35
51 -15 7 6 3 -4 -8 -24 -12 -20 -22 -39 -22 -42 0 -4 21 7 47 23 26 16 48 28
50 26 2 -2 -8 -43 -22 -91 -14 -48 -25 -93 -25 -100 0 -23 -28 -44 -52 -38
-19 5 -21 3 -10 -8 8 -9 12 -56 12 -161 0 -129 -2 -148 -17 -157 -13 -8 10
-10 85 -11 l102 0 0 28 c0 15 3 38 6 52 4 21 3 21 -9 -5 -20 -43 -41 -57 -79
-53 l-33 3 -3 68 c-2 53 0 67 11 67 17 0 33 -18 40 -45 2 -11 5 14 5 55 0 63
-1 70 -9 43 -7 -23 -16 -33 -29 -33 -17 0 -20 7 -20 39 0 70 10 101 34 101 30
0 64 -26 69 -53 3 -12 4 -2 3 22 -1 43 -1 43 -40 47 -21 2 -41 6 -44 8 -6 7
11 94 33 171 16 53 18 55 31 37 7 -11 25 -53 38 -93 l25 -74 0 53 c1 48 3 52
16 38 8 -8 15 -22 15 -31 0 -9 5 -13 11 -9 18 11 3 113 -20 145 -28 37 -27 48
2 22 40 -37 50 -38 33 -6 -20 41 -62 66 -93 59 -17 -5 -29 -1 -41 13 -28 34
-65 36 -98 7 -23 -20 -25 -25 -11 -26 22 0 22 -5 -2 -29 -19 -19 -19 -18 -36
25 -22 58 -64 88 -113 81 l-37 -5 30 13 c16 7 35 11 41 8 7 -2 15 0 19 6 3 6
15 11 26 11 51 0 -7 53 -61 56 -93 4 -95 55 -6 150 l65 69 -10 -38 c-6 -22 -8
-41 -6 -44 4 -4 17 20 74 145 18 38 33 42 33 8 0 -21 -31 -184 -46 -241 -13
-53 34 52 65 145 22 64 41 105 50 105 8 0 24 -33 40 -81 32 -95 62 -146 101
-174 40 -28 54 -25 30 8 -11 15 -23 46 -26 67 l-6 40 37 -60 c50 -81 82 -113
124 -125 54 -15 55 -13 13 31 -22 22 -59 78 -83 124 -31 58 -51 86 -66 90 -36
9 -95 77 -137 159 -57 111 -57 111 -125 38z m-131 -927 c18 -22 18 -114 0
-125 -34 -22 -40 -12 -40 65 0 57 3 75 14 75 7 0 19 -7 26 -15z"/>
<path d="M804 1171 c14 -15 16 -40 15 -154 -1 -105 -4 -139 -15 -148 -20 -16
-29 -4 -29 39 0 26 -5 37 -17 40 -43 8 -21 -90 23 -101 29 -8 65 10 78 40 6
13 11 77 11 144 0 66 5 129 10 140 10 18 7 19 -41 19 -50 0 -51 -1 -35 -19z"/>
<path d="M938 1178 c8 -8 12 -58 12 -160 0 -129 -2 -148 -17 -157 -14 -8 -2
-10 47 -10 36 0 58 3 50 6 -27 11 -30 26 -30 165 0 111 3 140 16 152 14 15 11
16 -37 16 -41 0 -50 -3 -41 -12z"/>
<path d="M1530 1180 c0 -5 5 -10 10 -10 6 0 10 -57 10 -150 0 -131 -2 -150
-17 -159 -14 -8 -4 -10 40 -11 53 0 57 1 43 16 -11 11 -16 35 -16 80 l0 64 45
0 45 0 0 -70 c0 -55 -3 -71 -17 -79 -14 -8 -4 -10 42 -10 46 0 56 2 43 10 -16
9 -18 27 -18 154 0 85 4 146 10 150 24 15 6 25 -41 25 -46 0 -49 -1 -35 -16
11 -11 16 -35 16 -80 l0 -64 -45 0 -45 0 0 64 c0 45 5 69 16 80 14 15 11 16
-35 16 -28 0 -51 -4 -51 -10z"/>
<path d="M995 750 c3 -5 8 -10 11 -10 2 0 4 5 4 10 0 6 -5 10 -11 10 -5 0 -7
-4 -4 -10z"/>
<path d="M1040 741 c-15 -29 -12 -74 6 -97 15 -18 15 -18 5 3 -14 28 -14 69
-1 94 6 10 8 19 6 19 -3 0 -10 -9 -16 -19z"/>
<path d="M1099 748 c7 -10 13 -37 13 -60 -1 -34 1 -39 9 -25 13 23 3 72 -19
89 -15 12 -16 11 -3 -4z"/>
<path d="M1150 756 c0 -15 43 -127 47 -122 3 2 -3 26 -12 52 -17 50 -34 85
-35 70z"/>
<path d="M1230 740 c0 -11 2 -20 4 -20 2 0 6 9 9 20 3 11 1 20 -4 20 -5 0 -9
-9 -9 -20z"/>
<path d="M1280 693 c0 -36 2 -64 5 -61 8 8 11 128 3 128 -5 0 -8 -30 -8 -67z"/>
<path d="M1319 743 c9 -17 9 -29 1 -45 -11 -22 -10 -22 4 -4 20 25 20 40 -1
57 -15 13 -15 12 -4 -8z"/>
<path d="M1387 747 c-3 -9 -2 -19 2 -22 5 -2 12 -25 15 -50 4 -25 11 -45 16
-45 6 0 -3 53 -24 124 -1 6 -5 2 -9 -7z"/>
<path d="M1468 728 c11 -18 29 -49 41 -68 11 -19 21 -29 21 -22 0 15 -67 122
-76 122 -3 0 3 -15 14 -32z"/>
<path d="M1560 756 c0 -2 7 -21 16 -41 9 -21 14 -49 11 -62 -2 -13 0 -23 4
-23 14 0 10 54 -6 94 -13 30 -25 46 -25 32z"/>
<path d="M937 733 c-13 -12 -7 -69 9 -89 14 -18 15 -18 4 5 -7 13 -10 39 -8
57 4 37 4 37 -5 27z"/>
<path d="M1234 650 c0 -11 4 -20 8 -20 4 0 8 9 8 20 0 11 -4 20 -8 20 -4 0 -8
-9 -8 -20z"/>
<path d="M1085 630 c-3 -6 1 -7 9 -4 18 7 21 14 7 14 -6 0 -13 -4 -16 -10z"/>
<path d="M1161 473 c0 -40 2 -73 7 -73 4 0 6 24 4 52 -5 89 -9 97 -11 21z"/>
<path d="M1220 529 c0 -5 5 -7 10 -4 6 3 10 8 10 11 0 2 -4 4 -10 4 -5 0 -10
-5 -10 -11z"/>
<path d="M1258 488 c5 -89 9 -97 11 -20 0 39 -2 72 -6 72 -5 0 -7 -24 -5 -52z"/>
<path d="M1330 470 c0 -60 2 -70 18 -70 13 0 14 2 4 9 -10 6 -13 26 -10 70 1
33 0 61 -4 61 -5 0 -8 -31 -8 -70z"/>
<path d="M1371 530 c23 -13 31 -53 19 -87 -9 -26 -9 -27 5 -9 8 11 15 29 15
41 0 25 -27 65 -43 65 -7 0 -5 -5 4 -10z"/>
</g>
</svg>
